HIERARCHY
ROOT Hips
{
 OFFSET 0.000000 0.000000 0.000000
 CHANNELS 6 Xposition Yposition Zposition Yrotation Xrotation Zrotation
 JOINT Chest
 {
  OFFSET 0.000000 9.581000 -0.001100
  CHANNELS 3 Yrotation Xrotation Zrotation
  JOINT Chest2
  {
   OFFSET 0.000000 9.561100 0.002200
   CHANNELS 3 Yrotation Xrotation Zrotation
   JOINT Chest3
   {
    OFFSET 0.000000 9.521100 0.000000
    CHANNELS 3 Yrotation Xrotation Zrotation
    JOINT Chest4
    {
     OFFSET 0.000000 9.511400 0.000000
     CHANNELS 3 Yrotation Xrotation Zrotation
     JOINT Neck
     {
      OFFSET 0.000000 14.375100 0.000000
      CHANNELS 3 Yrotation Xrotation Zrotation
      JOINT Head
      {
       OFFSET 0.000000 8.901200 0.004600
       CHANNELS 3 Yrotation Xrotation Zrotation
       End Site
       {
        OFFSET 0.000000 16.962200 0.002400
       }
      }
     }
     JOINT RightCollar
     {
      OFFSET -2.920100 9.518800 0.000000
      CHANNELS 3 Yrotation Xrotation Zrotation
      JOINT RightShoulder
      {
       OFFSET -13.664500 0.000000 0.000000
       CHANNELS 3 Yrotation Xrotation Zrotation
       JOINT RightElbow
       {
        OFFSET 0.000000 -29.999200 0.000000
        CHANNELS 3 Yrotation Xrotation Zrotation
        JOINT RightWrist
        {
         OFFSET 0.000000 -24.253600 0.000000
         CHANNELS 3 Yrotation Xrotation Zrotation
         End Site
         {
          OFFSET 0.000000 -17.918900 0.000000
         }
        }
       }
      }
     }
     JOINT LeftCollar
     {
      OFFSET 2.920100 9.518800 0.000000
      CHANNELS 3 Yrotation Xrotation Zrotation
      JOINT LeftShoulder
      {
       OFFSET 13.664500 0.000000 0.000000
       CHANNELS 3 Yrotation Xrotation Zrotation
       JOINT LeftElbow
       {
        OFFSET 0.000000 -29.999200 0.000000
        CHANNELS 3 Yrotation Xrotation Zrotation
        JOINT LeftWrist
        {
         OFFSET 0.000000 -24.253600 0.000000
         CHANNELS 3 Yrotation Xrotation Zrotation
         End Site
         {
          OFFSET 0.000000 -17.918900 0.000000
         }
        }
       }
      }
     }
    }
   }
  }
 }
 JOINT RightHip
 {
  OFFSET -7.797300 0.005300 0.000500
  CHANNELS 3 Yrotation Xrotation Zrotation
  JOINT RightKnee
  {
   OFFSET 0.000000 -40.663400 -0.000500
   CHANNELS 3 Yrotation Xrotation Zrotation
   JOINT RightAnkle
   {
    OFFSET 0.000000 -39.523700 -0.000900
    CHANNELS 3 Yrotation Xrotation Zrotation
    JOINT RightToe
    {
     OFFSET 0.000000 -6.418000 14.485300
     CHANNELS 3 Yrotation Xrotation Zrotation
     End Site
     {
      OFFSET 0.000000 -1.465200 6.326400
     }
    }
   }
  }
 }
 JOINT LeftHip
 {
  OFFSET 7.797300 0.005300 0.000500
  CHANNELS 3 Yrotation Xrotation Zrotation
  JOINT LeftKnee
  {
   OFFSET 0.000000 -40.663400 -0.000500
   CHANNELS 3 Yrotation Xrotation Zrotation
   JOINT LeftAnkle
   {
    OFFSET 0.000000 -39.523700 -0.000900
    CHANNELS 3 Yrotation Xrotation Zrotation
    JOINT LeftToe
    {
     OFFSET 0.000000 -6.418000 14.485300
     CHANNELS 3 Yrotation Xrotation Zrotation
     End Site
     {
      OFFSET 0.000000 -1.465200 6.326400
     }
    }
   }
  }
 }
}
MOTION
Frames: 11
Frame Time: 0.008333
0.000000 86.422400 0.000000 0.000000 -5.767877 0.000000 0.000000 11.653817 0.000000 0.000000 -5.885947 0.000000 0.000000 -0.000000 0.000000 0.000000 -0.000000 0.000000 0.000000 12.528835 0.000000 0.000000 0.711642 0.000000 0.000000 -0.000000 0.000000 0.000000 0.000000 -90.000000 0.000000 -2.309062 0.000000 0.000000 2.309062 0.000000 0.000000 -0.000000 0.000000 0.000000 -0.000000 90.000000 0.000000 -2.309062 0.000000 0.000000 2.309062 0.000000 0.000000 8.520406 0.000000 0.000000 1.905762 0.000000 -0.000000 -4.658285 0.000000 0.000000 -0.000000 0.000000 0.000000 8.520406 0.000000 0.000000 1.905762 0.000000 -0.000000 -4.658285 0.000000 0.000000 -0.000000 0.000000
-23.606624 126.232340 53.905731 178.202043 -24.476255 -3.426970 -1.628193 21.637444 2.447056 -0.271998 2.943415 0.365076 -0.428834 4.780453 0.588667 -1.429540 18.356401 2.108343 2.744335 13.559349 -5.932042 4.348347 -11.281126 -7.072199 -1.070466 -7.662287 -1.509298 12.308229 -12.473056 -4.044579 -117.387042 -58.809019 155.577471 -4.623014 -17.711885 -35.745533 -11.426458 -7.607659 0.557942 -15.928565 -16.916747 11.092722 151.707663 -73.747611 -175.181031 -25.040084 -20.837747 63.293326 -8.436576 -57.005254 6.611885 -10.861383 71.525900 -12.627299 16.529916 12.019142 4.362460 0.004711 -0.002958 0.002087 -9.903795 -57.065289 0.207814 35.327305 65.175094 25.873257 -0.514651 36.066421 4.289062 -0.006681 -0.001349 -0.002960
-23.606673 126.232716 53.908001 178.196213 -24.480060 -3.423426 -1.626429 21.637254 2.442799 -0.271811 2.947164 0.365187 -0.430903 4.788639 0.589324 -1.428599 18.365987 2.107275 2.736724 13.567532 -5.930161 4.346993 -11.292642 -7.072469 -1.040812 -7.737842 -1.569594 12.299056 -12.439695 -4.011758 -117.465507 -58.787591 155.664666 -4.616307 -17.712188 -35.734087 -11.458647 -7.711574 0.601477 -15.888293 -16.870288 11.045766 151.721121 -73.729815 -175.214227 -25.095790 -20.869334 63.359501 -8.442209 -57.003305 6.630115 -10.881287 71.517854 -12.651638 16.473916 12.031960 4.353062 -0.000386 -0.003667 -0.000171 -9.965621 -57.064092 0.249618 35.372448 65.169093 25.888875 -0.515557 36.069477 4.293529 -0.009367 0.002167 -0.004150
-23.606009 126.233906 53.909091 178.188124 -24.494180 -3.421926 -1.618547 21.648128 2.443571 -0.273022 2.944047 0.366464 -0.432313 4.803098 0.585198 -1.424411 18.377094 2.107017 2.724146 13.569836 -5.925174 4.345752 -11.303109 -7.071676 -1.024243 -7.798013 -1.609352 12.325770 -12.430698 -4.030244 -117.542979 -58.747908 155.716562 -4.612638 -17.715049 -35.722252 -11.473649 -7.764900 0.625306 -15.876451 -16.869745 11.035680 151.669374 -73.737457 -175.165298 -25.126765 -20.894003 63.387984 -8.445127 -56.990423 6.648906 -10.941789 71.502434 -12.723952 16.472544 12.044360 4.366912 -0.005642 -0.004545 -0.002499 -10.006132 -57.048560 0.282351 35.349068 65.166955 25.843460 -0.501455 36.079341 4.307459 -0.011963 0.000898 -0.005300
-23.606041 126.236029 53.908425 178.189990 -24.520022 -3.418769 -1.620169 21.669402 2.439633 -0.280984 2.934522 0.368815 -0.434939 4.798408 0.587241 -1.429356 18.385803 2.103133 2.720404 13.588714 -5.926030 4.327863 -11.300256 -7.060937 -0.983286 -7.825299 -1.674321 12.314145 -12.419748 -4.024244 -117.628912 -58.708902 155.791313 -4.615987 -17.719240 -35.708847 -11.500946 -7.841691 0.659267 -15.848927 -16.916124 11.023482 151.606768 -73.724128 -175.162138 -25.163006 -20.865069 63.462069 -8.439214 -56.968781 6.644264 -10.960586 71.498423 -12.751216 16.486713 12.049969 4.377814 -0.007096 -0.006197 -0.003144 -10.018728 -57.015119 0.286049 35.305707 65.159223 25.781717 -0.477923 36.080346 4.344730 -0.008319 -0.004261 -0.003686
-23.605356 126.237408 53.909731 178.188606 -24.533307 -3.417635 -1.625121 21.669401 2.439098 -0.292295 2.925645 0.371221 -0.431052 4.804053 0.584442 -1.452257 18.367963 2.104046 2.702059 13.608101 -5.917992 4.347960 -11.274962 -7.073243 -0.915006 -7.818247 -1.748882 12.279429 -12.410381 -4.013125 -117.712835 -58.661748 155.870204 -4.623757 -17.724404 -35.695948 -11.491529 -7.859255 0.661550 -15.837919 -16.933140 11.013735 151.671454 -73.693432 -175.273772 -25.199476 -20.857522 63.514324 -8.436311 -56.959569 6.649592 -10.981038 71.496311 -12.777697 16.501482 12.052223 4.385226 -0.005696 -0.005911 -0.002523 -10.014382 -56.988148 0.285731 35.273853 65.149348 25.738764 -0.462438 36.069863 4.365500 -0.001130 -0.001600 -0.000501
-23.603869 126.238924 53.910957 178.185654 -24.546875 -3.419657 -1.638658 21.662493 2.441179 -0.300116 2.917623 0.373660 -0.413699 4.826529 0.576142 -1.489651 18.329912 2.111598 2.703399 13.639637 -5.923718 4.357465 -11.252240 -7.079229 -0.862202 -7.776718 -1.786811 12.261478 -12.408523 -4.022645 -117.792670 -58.611633 155.956632 -4.628367 -17.728439 -35.686349 -11.467575 -7.850783 0.649194 -15.845692 -16.964874 11.016780 151.708950 -73.679688 -175.341405 -25.220440 -20.837345 63.548753 -8.439712 -56.951054 6.673200 -11.027737 71.493951 -12.838184 16.537372 12.053734 4.397775 0.003439 -0.007716 0.001524 -9.996032 -56.955314 0.278334 35.230305 65.136522 25.695211 -0.446659 36.056030 4.381815 0.009581 0.003153 0.004245
-23.603652 126.240437 53.911910 178.179340 -24.561169 -3.412239 -1.678484 21.629634 2.436786 -0.286545 2.932071 0.367307 -0.418992 4.824851 0.572027 -1.507212 18.312404 2.114411 2.717421 13.687299 -5.942316 4.343029 -11.223724 -7.074908 -0.700325 -7.672905 -1.902476 12.125035 -12.467337 -3.969780 -117.829821 -58.584716 155.997102 -4.629966 -17.762587 -35.670763 -11.461031 -7.869433 0.645791 -15.841962 -16.968389 10.997501 151.773482 -73.669694 -175.426538 -25.242540 -20.806172 63.590623 -8.422036 -56.939335 6.668007 -11.013073 71.489175 -12.831004 16.542692 12.058856 4.410209 0.001673 -0.006468 0.000741 -9.954614 -56.919448 0.252374 35.185441 65.123202 25.633561 -0.399981 36.039674 4.432155 0.011884 0.009150 0.005266
-23.603502 126.241990 53.912579 178.169574 -24.576933 -3.403224 -1.701333 21.606958 2.435946 -0.282763 2.934515 0.364544 -0.428513 4.819952 0.570045 -1.515388 18.295680 2.118649 2.720783 13.739453 -5.963658 4.323092 -11.188269 -7.072661 -0.559414 -7.530912 -1.989009 11.972497 -12.541898 -3.960556 -117.837212 -58.533354 156.038236 -4.650867 -17.804603 -35.654672 -11.502399 -7.936378 0.666932 -15.801596 -16.929174 10.942897 151.876865 -73.662359 -175.539430 -25.281513 -20.758845 63.663838 -8.397155 -56.925551 6.659463 -11.021060 71.484204 -12.842486 16.553711 12.060082 4.418471 0.000576 -0.004717 0.000255 -9.912141 -56.881855 0.228731 35.162016 65.106674 25.589222 -0.372971 36.026040 4.475513 0.010152 0.015741 0.004499
-23.604424 126.242496 53.915060 178.168101 -24.579794 -3.392497 -1.715121 21.593940 2.427620 -0.288479 2.922527 0.368438 -0.437740 4.802743 0.574280 -1.519221 18.281990 2.124799 2.700712 13.782234 -5.975876 4.315245 -11.141310 -7.083050 -0.442582 -7.382978 -2.058590 11.760477 -12.554915 -3.917091 -117.867837 -58.337562 156.156646 -4.635580 -17.735558 -35.605340 -11.533061 -7.966164 0.668366 -15.804396 -16.923450 10.917916 152.033970 -73.657567 -175.692956 -25.354222 -20.691160 63.797369 -8.371587 -56.922459 6.646632 -11.060425 71.478145 -12.877013 16.517290 12.059215 4.416196 -0.003630 -0.000716 -0.001608 -9.880160 -56.859947 0.205172 35.234035 65.053544 25.613185 -0.372662 36.041927 4.547806 -0.001908 0.012082 -0.000846
-23.603980 126.243077 53.917206 178.163816 -24.585889 -3.389981 -1.722398 21.584187 2.429292 -0.284056 2.929161 0.365207 -0.453156 4.766451 0.587333 -1.513490 18.298562 2.117815 2.655548 13.783738 -5.950714 4.272688 -11.047313 -7.092774 -0.336065 -7.275438 -2.104598 11.576395 -12.541428 -3.839845 -117.908615 -58.185372 156.240027 -4.634317 -17.699074 -35.516411 -11.571008 -8.006374 0.689878 -15.837275 -16.934403 10.900335 152.261033 -73.659744 -175.895727 -25.471983 -20.610576 64.006859 -8.359248 -56.914657 6.646588 -11.082120 71.473141 -12.895092 16.513838 12.056353 4.416931 -0.004433 0.002175 -0.001964 -9.864370 -56.842629 0.196239 35.299731 65.014391 25.653071 -0.361070 36.059030 4.590666 -0.004708 0.010196 -0.002086
